<?xml version="1.0" standalone="no"?>
<!DOCTYPE svg PUBLIC "-//W3C//DTD SVG 20010904//EN"
 "http://www.w3.org/TR/2001/REC-SVG-20010904/DTD/svg10.dtd">
<svg version="1.0" xmlns="http://www.w3.org/2000/svg"
 width="512.000000pt" height="512.000000pt" viewBox="0 0 512.000000 512.000000"
 preserveAspectRatio="xMidYMid meet">
<metadata>
Created by potrace 1.14, written by Peter Selinger 2001-2017
</metadata>
<g transform="translate(0.000000,512.000000) scale(0.100000,-0.100000)"
fill="#000000" stroke="none">
<path d="M487 4154 c-3 -3 -4 -24 -1 -45 6 -50 -8 -51 -94 -3 -48 27 -67 33
-75 25 -8 -8 -11 -50 -10 -121 1 -61 -3 -112 -8 -116 -5 -3 -9 -13 -9 -22 0
-23 -74 -222 -100 -269 -11 -21 -31 -56 -44 -77 -19 -33 -24 -56 -25 -125 -2
-76 -6 -91 -33 -135 -26 -43 -29 -56 -23 -90 8 -47 8 -75 0 -132 -5 -31 -2
-48 14 -75 12 -19 21 -43 21 -55 0 -11 7 -29 15 -40 9 -13 12 -31 8 -57 -5
-30 -1 -45 17 -69 16 -22 19 -33 11 -41 -18 -18 -13 -45 21 -116 18 -36 33
-73 35 -81 5 -23 6 -44 3 -55 -7 -29 4 -44 48 -63 26 -11 57 -30 67 -42 11
-12 32 -29 48 -36 15 -8 25 -19 22 -24 -3 -5 5 -14 17 -21 33 -18 56 -50 63
-89 13 -76 16 -87 28 -87 24 -1 163 -15 186 -18 13 -2 33 -13 45 -23 12 -10
50 -36 84 -58 35 -21 94 -58 130 -81 37 -23 74 -46 82 -49 8 -4 21 -12 29 -18
14 -11 18 -12 106 -22 33 -3 67 -7 75 -9 8 -1 41 -6 73 -9 55 -7 57 -6 67 19
9 24 14 26 48 21 80 -11 108 -20 120 -38 8 -10 37 -44 65 -75 67 -72 86 -101
80 -123 -6 -23 57 -86 122 -120 l46 -25 22 26 c12 15 30 36 39 48 15 18 24 20
64 14 38 -5 54 -14 83 -46 20 -22 43 -56 51 -76 20 -48 67 -126 85 -141 8 -7
15 -19 15 -27 0 -8 10 -37 21 -64 24 -55 38 -65 147 -104 106 -38 127 -31 97
32 -33 68 -24 157 20 198 53 49 86 75 95 75 14 0 100 43 100 50 0 4 10 19 23
34 19 22 39 30 108 42 46 8 95 12 109 9 69 -15 79 -15 88 1 8 15 13 14 43 -7
19 -13 36 -27 39 -30 16 -19 52 -30 65 -19 8 6 23 9 33 6 11 -4 24 0 32 9 11
13 16 12 40 -5 24 -17 33 -18 54 -9 33 16 33 22 -5 52 -27 21 -28 25 -15 36 9
8 16 24 16 37 0 16 7 25 23 28 55 11 95 14 107 6 7 -4 27 -2 46 6 43 18 91 18
142 0 22 -8 43 -13 46 -10 3 2 4 1 1 -2 -8 -12 16 -44 33 -44 10 0 39 13 65
30 26 16 53 30 60 30 20 0 148 -123 151 -145 2 -11 -1 -31 -6 -44 -6 -17 -4
-31 9 -50 9 -14 16 -28 16 -31 -2 -9 50 -74 78 -97 15 -13 32 -36 39 -53 7
-16 18 -30 24 -30 7 0 29 -18 51 -40 21 -21 46 -38 55 -37 32 5 70 37 70 60 0
12 3 46 6 76 6 49 3 62 -32 130 -22 42 -44 82 -51 89 -7 7 -10 19 -6 27 6 17
-17 56 -57 98 -36 37 -69 117 -85 202 -9 50 40 158 94 208 47 43 60 59 85 112
16 34 40 56 76 72 14 6 35 30 47 55 15 29 36 52 62 66 41 23 64 63 42 70 -8 3
-4 13 12 31 14 14 26 33 27 41 5 32 -1 50 -14 50 -9 0 -12 7 -9 20 8 30 -15
76 -43 89 -14 6 -24 17 -21 24 2 6 -4 34 -14 61 -21 57 -18 69 12 38 14 -16
19 -31 16 -52 -6 -38 17 -60 32 -32 37 69 53 153 36 186 -8 14 -10 26 -5 26 6
0 21 17 34 38 19 28 26 52 27 101 l2 64 42 18 c49 22 78 51 80 81 1 14 16 29
48 46 26 13 47 28 47 33 0 5 7 9 15 9 53 0 81 44 52 84 -14 19 -47 13 -47 -10
0 -10 -5 -9 -18 4 -14 14 -18 32 -17 68 3 86 14 119 46 138 17 10 35 29 41 42
10 21 53 58 61 52 5 -5 97 85 97 95 0 5 -23 30 -50 55 -43 38 -54 57 -72 115
-16 54 -27 73 -51 87 -27 17 -33 17 -59 4 -16 -8 -28 -10 -28 -4 0 5 -9 10
-19 10 -25 0 -61 -104 -59 -170 2 -66 -10 -108 -33 -115 -11 -4 -25 -18 -31
-31 -10 -22 -44 -37 -113 -50 -75 -14 -158 -39 -171 -52 -9 -8 -33 -39 -55
-68 -39 -53 -49 -87 -28 -99 7 -5 4 -14 -8 -27 -28 -32 -50 -39 -120 -42 -50
-3 -70 -8 -80 -22 -16 -22 -17 -46 -1 -62 8 -8 2 -19 -24 -44 -58 -56 -190
-148 -212 -148 -7 0 -17 -5 -23 -11 -9 -9 -20 -9 -45 1 -43 17 -41 15 -29 37
27 47 51 115 51 140 -1 65 -57 139 -90 118 -6 -4 -11 11 -12 37 -1 24 -2 53
-3 65 -2 32 -18 47 -77 68 l-53 19 43 9 c72 14 46 58 -44 71 -8 1 -20 10 -27
20 -12 17 -19 18 -64 7 -27 -7 -61 -18 -75 -25 -25 -13 -88 -10 -88 4 0 5 -14
11 -30 15 l-30 7 20 27 c10 16 17 31 13 35 -15 15 -53 4 -82 -23 -35 -33 -116
-81 -136 -81 -7 0 -16 7 -19 16 -6 16 -29 16 -71 -2 -24 -9 26 34 108 95 75
55 66 65 -52 66 -71 1 -95 6 -124 23 -22 13 -60 23 -96 26 -72 5 -78 8 -86 46
-9 39 -42 50 -65 20 l-16 -21 -290 6 c-159 3 -305 8 -324 10 -19 2 -57 6 -85
9 -27 3 -75 9 -105 12 -30 3 -66 8 -80 9 -14 2 -52 6 -84 10 -33 4 -67 8 -77
10 -9 2 -39 7 -66 11 -26 3 -55 8 -63 9 -8 2 -33 5 -55 9 -219 33 -336 54
-500 91 -24 6 -38 9 -130 29 -38 8 -113 26 -165 40 -98 27 -122 30 -133 20z
m3043 -614 c0 -5 -9 -25 -20 -45 -11 -19 -20 -37 -20 -40 0 -3 0 -9 0 -15 0
-5 -3 -9 -7 -9 -31 5 -43 -4 -53 -42 -14 -51 -11 -123 8 -168 25 -63 6 -158
-38 -181 -16 -9 -22 -6 -37 22 -10 18 -19 42 -21 53 -7 45 -8 181 -2 195 13
28 40 118 40 134 0 9 -7 16 -15 16 -13 0 -14 4 -5 20 6 11 19 20 29 20 11 0
39 11 62 25 45 26 79 32 79 15z"/>
</g>
</svg>
